<svg width="411" height="102" viewBox="0 0 411 102" fill="none" xmlns="http://www.w3.org/2000/svg">
<path d="M65.4 22.5C65.8667 24.1667 66.1 26.0333 66.1 28.1C66.1 28.8333 66.0333 30.0667 65.9 31.8C65.5 35.2 64.5333 38.4 63 41.4C61.5333 44.2667 59.4667 46.7667 56.8 48.9C54.2667 50.9667 51.1667 52.6 47.5 53.8C44.1 54.9333 39.9333 55.5 35 55.5H26L24.1 71.1L27 71.6C27.3333 71.6667 27.6 71.7333 27.8 71.8C28.0667 71.8667 28.3 71.9 28.5 71.9L29.1 72C30.7 72.4 31.4 73.4333 31.2 75.1L30.5 81H1.9L2.6 75.1C2.8 73.4333 3.76667 72.4 5.5 72L6.1 71.9L7.7 71.6L10.7 71.1L17.1 18.6L14.2 18.1C13.8667 18.0333 13.5667 17.9667 13.3 17.9C13.1 17.8333 12.9333 17.8 12.8 17.8L12.2 17.7C10.6 17.3 9.9 16.2667 10.1 14.6L10.8 8.7H40.7C45.4333 8.7 49.5667 9.26666 53.1 10.4C56.1667 11.4 58.8667 13 61.2 15.2C63.1333 17.0667 64.5333 19.5 65.4 22.5ZM50.9 37.3C51.7667 35.5667 52.3 33.7 52.5 31.7C52.5667 31.3 52.6 30.7 52.6 29.9C52.6 28.6333 52.4667 27.5 52.2 26.5C51.8 24.9 51.0667 23.5667 50 22.5C48.9333 21.4333 47.5333 20.6 45.8 20C44 19.4 41.8667 19.1 39.4 19.1H30.5L27.3 45H36.3C38.7667 45 40.9333 44.7 42.8 44.1C44.9333 43.4333 46.5667 42.5667 47.7 41.5C49.0333 40.3667 50.1 38.9667 50.9 37.3ZM88.4664 72C90.0664 72.4 90.7664 73.4333 90.5664 75.1L89.8664 81H69.8664L71.1664 71.1L77.8664 16.6L74.9664 16.1C74.6331 16.0333 74.3331 15.9667 74.0664 15.9C73.8664 15.8333 73.6664 15.8 73.4664 15.8L72.8664 15.7C71.2664 15.3 70.5664 14.2667 70.7664 12.6L71.4664 6.7H91.3664L83.4664 71.1L86.3664 71.6L87.8664 71.9L88.4664 72ZM119.464 14C119.464 15.3333 119.131 16.6 118.464 17.8C118.064 18.5333 117.364 19.3333 116.364 20.2C115.497 20.9333 114.597 21.5 113.664 21.9C112.664 22.3 111.597 22.5 110.464 22.5C109.464 22.5 108.497 22.3 107.564 21.9C106.631 21.5 105.864 20.9333 105.264 20.2C104.597 19.4667 104.131 18.6667 103.864 17.8C103.597 17.0667 103.531 16.0667 103.664 14.8C103.731 13.8 104.064 12.7333 104.664 11.6C105.064 10.8 105.731 10 106.664 9.19999C107.597 8.4 108.464 7.83333 109.264 7.5C110.397 7.03333 111.431 6.8 112.364 6.8C113.364 6.8 114.397 7.03333 115.464 7.5C116.397 7.9 117.164 8.46666 117.764 9.19999C118.431 10 118.897 10.8 119.164 11.6C119.364 12.2667 119.464 13.0667 119.464 14ZM115.664 72C117.264 72.4 117.964 73.4333 117.764 75.1L117.064 81H97.0641L98.3641 71.1L102.164 39.6L99.2641 39.1L97.8641 38.8L97.2641 38.7C95.5974 38.3 94.8641 37.2667 95.0641 35.6L95.8641 29.7H115.764L110.664 71.1L113.564 71.6L114.964 71.9C115.164 71.9667 115.397 72 115.664 72ZM176.287 72C177.887 72.4 178.587 73.4333 178.387 75.1L177.687 81H157.687L161.687 48.4C161.82 47.3333 161.887 46.6 161.887 46.2C161.887 44.1333 161.42 42.4333 160.487 41.1C159.287 39.3667 157.22 38.5 154.287 38.5C152.153 38.5 150.087 39 148.087 40C145.887 41.0667 143.953 42.3667 142.287 43.9L140.287 60.2L139.987 62.6L138.987 71.1L137.687 81H125.387L127.187 66.1L130.487 39.6L127.587 39.1C127.253 39.0333 126.953 38.9667 126.687 38.9C126.487 38.8333 126.287 38.8 126.087 38.8L125.487 38.7C123.887 38.3 123.187 37.2667 123.387 35.6L124.087 29.7H139.187C140.787 29.7 141.753 30.4667 142.087 32L142.487 36C143.687 34.8667 144.887 33.9 146.087 33.1C147.42 32.1667 148.72 31.4333 149.987 30.9C151.853 30.1 153.287 29.6 154.287 29.4C155.953 29.0667 157.587 28.9 159.187 28.9C162.12 28.9 164.553 29.3667 166.487 30.3C168.487 31.2333 170.12 32.5667 171.387 34.3C172.52 35.9 173.353 37.9667 173.887 40.5C174.153 41.7667 174.287 43.2333 174.287 44.9C174.287 46.4333 174.22 47.6 174.087 48.4L171.287 71.1L174.187 71.6L175.587 71.9C175.787 71.9667 176.02 72 176.287 72ZM225.769 41.6C225.769 43.8 225.302 45.9 224.369 47.9C223.435 49.8333 221.802 51.5333 219.469 53C217.069 54.4667 213.869 55.7667 209.869 56.9C205.669 58.0333 200.502 58.9 194.369 59.5V60.1C194.369 68.1667 197.769 72.2 204.569 72.2C206.169 72.2 207.469 72.0667 208.469 71.8C209.935 71.4 210.935 71.0667 211.469 70.8C212.202 70.4 212.969 69.9333 213.769 69.4L215.669 68.1C216.669 67.4333 217.235 67.0667 217.369 67C217.902 66.7333 218.535 66.6 219.269 66.6C219.669 66.6 220.069 66.7 220.469 66.9C220.869 67.1 221.202 67.3667 221.469 67.7L224.569 71.5C222.835 73.2333 221.102 74.7667 219.369 76.1C217.502 77.5 215.769 78.5667 214.169 79.3C212.302 80.1 210.435 80.7 208.569 81.1C206.569 81.5 204.435 81.7 202.169 81.7C199.102 81.7 196.369 81.2 193.969 80.2C191.435 79.1333 189.369 77.7 187.769 75.9C185.969 74.0333 184.635 71.8 183.769 69.2C182.769 66.3333 182.269 63.4 182.269 60.4C182.269 57.7333 182.569 55.1 183.169 52.5C183.835 49.7 184.669 47.2333 185.669 45.1C186.669 42.9667 188.035 40.8333 189.769 38.7C191.369 36.7 193.169 35 195.169 33.6C197.302 32.1333 199.535 31 201.869 30.2C204.269 29.4 206.835 29 209.569 29C212.302 29 214.669 29.4 216.669 30.2C219.002 31.1333 220.702 32.1 221.769 33.1C222.969 34.1667 223.969 35.5333 224.769 37.2C225.435 38.6 225.769 40.0667 225.769 41.6ZM208.869 37.6C207.135 37.6 205.602 37.9333 204.269 38.6C202.735 39.3333 201.435 40.3 200.369 41.5C199.169 42.7 198.169 44.1667 197.369 45.9C196.569 47.6333 195.902 49.5333 195.369 51.6C199.835 50.9333 203.169 50.3 205.369 49.7C207.902 48.9667 209.835 48.2333 211.169 47.5C212.702 46.6333 213.635 45.8 213.969 45C214.369 44.2667 214.569 43.3 214.569 42.1C214.569 41.5 214.469 40.9667 214.269 40.5C214.069 40.0333 213.735 39.5667 213.269 39.1C212.602 38.5667 212.035 38.2 211.569 38C210.969 37.7333 210.069 37.6 208.869 37.6Z" fill="black"/>
<path d="M293.037 22.5C293.503 24.1667 293.737 26.0333 293.737 28.1C293.737 28.8333 293.67 30.0667 293.537 31.8C293.137 35.2 292.17 38.4 290.637 41.4C289.17 44.2667 287.103 46.7667 284.437 48.9C281.903 50.9667 278.803 52.6 275.137 53.8C271.737 54.9333 267.57 55.5 262.637 55.5H253.637L251.737 71.1L254.637 71.6C254.97 71.6667 255.237 71.7333 255.437 71.8C255.703 71.8667 255.937 71.9 256.137 71.9L256.737 72C258.337 72.4 259.037 73.4333 258.837 75.1L258.137 81H229.537L230.237 75.1C230.437 73.4333 231.403 72.4 233.137 72L233.737 71.9L235.337 71.6L238.337 71.1L244.737 18.6L241.837 18.1C241.503 18.0333 241.203 17.9667 240.937 17.9C240.737 17.8333 240.57 17.8 240.437 17.8L239.837 17.7C238.237 17.3 237.537 16.2667 237.737 14.6L238.437 8.7H268.337C273.07 8.7 277.203 9.26666 280.737 10.4C283.803 11.4 286.503 13 288.837 15.2C290.77 17.0667 292.17 19.5 293.037 22.5ZM278.537 37.3C279.403 35.5667 279.937 33.7 280.137 31.7C280.203 31.3 280.237 30.7 280.237 29.9C280.237 28.6333 280.103 27.5 279.837 26.5C279.437 24.9 278.703 23.5667 277.637 22.5C276.57 21.4333 275.17 20.6 273.437 20C271.637 19.4 269.503 19.1 267.037 19.1H258.137L254.937 45H263.937C266.403 45 268.57 44.7 270.437 44.1C272.57 43.4333 274.203 42.5667 275.337 41.5C276.67 40.3667 277.737 38.9667 278.537 37.3ZM343.303 71.9C344.97 72.3 345.703 73.3333 345.503 75L344.703 80.9H332.003C330.47 80.9 329.403 80.5667 328.803 79.9C328.203 79.1667 327.903 78.2667 327.903 77.2L328.303 70.2C325.836 73.9333 323.303 76.7333 320.703 78.6C317.97 80.6667 314.836 81.7 311.303 81.7C309.436 81.7 307.636 81.3 305.903 80.5C304.103 79.6333 302.636 78.5 301.503 77.1C300.303 75.7 299.336 73.8 298.603 71.4C297.87 69 297.503 66.3333 297.503 63.4C297.503 60.2667 297.903 57.2667 298.703 54.4C299.636 51.1333 300.703 48.4 301.903 46.2C303.37 43.5333 305.07 41.2 307.003 39.2C309.136 37 311.403 35.1667 313.803 33.7C316.67 31.9667 319.336 30.7667 321.803 30.1C324.736 29.3 327.77 28.9 330.903 28.9C333.036 28.9 335.37 29.0667 337.903 29.4C340.236 29.7333 342.503 30.3333 344.703 31.2L339.703 71.3L339.803 71.2L342.303 71.7L343.303 71.9ZM331.703 37.8C330.503 37.6667 329.67 37.6 329.203 37.6C326.403 37.6 323.836 38.2333 321.503 39.5C319.17 40.7667 317.136 42.4667 315.403 44.6C313.603 46.9333 312.236 49.4333 311.303 52.1C310.37 54.7 309.903 57.7333 309.903 61.2C309.903 64.8 310.436 67.4333 311.503 69.1C312.57 70.7667 314.136 71.6 316.203 71.6C317.536 71.6 318.87 71.1333 320.203 70.2C321.47 69.3333 322.703 68.0333 323.903 66.3C325.17 64.5667 326.27 62.6333 327.203 60.5C328.27 58.1 329.136 55.7 329.803 53.3L331.703 37.8ZM407.959 35.6C407.759 37.2667 406.792 38.3 405.059 38.7C404.859 38.7 404.459 38.7667 403.859 38.9C403.325 39.0333 402.125 39.2667 400.259 39.6L369.659 95.1C369.125 96.0333 368.559 96.7 367.959 97.1C367.492 97.5 366.592 97.7 365.259 97.7H356.059L368.159 77.2L356.359 39.6C354.625 39.3333 353.492 39.1333 352.959 39C352.425 38.8 352.025 38.7 351.759 38.7C350.092 38.3 349.359 37.2667 349.559 35.6L350.359 29.7H375.259L374.559 35.6C374.359 37.2667 373.392 38.3 371.659 38.7L369.259 39.1L374.959 58.6C375.159 59.2 375.292 59.7333 375.359 60.2C375.425 60.6667 375.492 61.0333 375.559 61.3C375.625 61.7 375.692 62.2 375.759 62.8C375.825 63.3333 375.859 63.7667 375.859 64.1C376.125 63.5 376.359 62.9667 376.559 62.5C376.825 62.0333 377.025 61.6333 377.159 61.3C377.692 60.1 378.125 59.2 378.459 58.6L388.359 39.3L385.059 38.7C383.459 38.3 382.759 37.2667 382.959 35.6L383.659 29.7H408.659L407.959 35.6Z" fill="#FFC300"/>
</svg>
